<svg width="239" height="226" viewBox="0 0 239 226" fill="none" xmlns="http://www.w3.org/2000/svg">
<g clip-path="url(#clip0_44_2392)" filter="url(#filter0_di_44_2392)">
<path d="M69.1146 -54.8969C70.478 -36.1988 67.8505 -19.208 62.5236 -6.85656C57.1847 5.52281 49.2057 13.103 39.9409 13.3133C30.6761 13.5235 21.6199 6.32983 14.4963 -5.76675C7.38884 -17.836 2.29632 -34.6517 0.932954 -53.3497C-0.43041 -72.0478 2.19712 -89.0386 7.52397 -101.39C12.8629 -113.769 20.8419 -121.35 30.1067 -121.56C39.3714 -121.77 48.4277 -114.576 55.5513 -102.48C62.6588 -90.4106 67.7513 -73.5949 69.1146 -54.8969Z" fill="white" stroke="black"/>
<path d="M6.91704 108.394C-6.89646 120.979 -22.1173 129.613 -35.5402 133.413C-48.9926 137.222 -60.4829 136.142 -67.0454 129.556C-73.6079 122.97 -74.181 111.944 -69.5528 99.2799C-64.9347 86.6437 -55.1805 72.5238 -41.367 59.9389C-27.5535 47.3539 -12.3327 38.7201 1.09017 34.9198C14.5426 31.1112 26.0329 32.1912 32.5954 38.7769C39.1579 45.3626 39.731 56.3888 35.1028 69.0528C30.4847 81.6891 20.7305 95.8089 6.91704 108.394Z" fill="white" stroke="black"/>
<path d="M108.991 91.3959C116.027 109.139 118.778 126.354 117.557 139.834C116.334 153.35 111.146 162.943 102.496 165.759C93.8459 168.575 83.1058 164.167 72.6689 154.448C62.2592 144.754 52.2885 129.889 45.2528 112.147C38.2171 94.4039 35.4665 77.1886 36.6866 63.7084C37.9099 50.1928 43.0984 40.5999 51.7483 37.7839C60.3982 34.9678 71.1383 39.375 81.5753 49.0944C91.9849 58.7884 101.956 73.6532 108.991 91.3959Z" fill="white" stroke="black"/>
<path d="M121.402 -13.7064C140.92 -13.3181 158.665 -9.25821 171.572 -3.02998C184.519 3.21772 192.424 11.5511 192.66 20.4171C192.897 29.283 185.428 37.3106 172.8 43.0496C160.212 48.7707 142.664 52.1286 123.146 51.7404C103.628 51.3521 85.8833 47.2922 72.9763 41.064C60.0289 34.8163 52.1241 26.4829 51.8878 17.6169C51.6515 8.75095 59.1203 0.723381 71.7481 -5.01559C84.3366 -10.7367 101.884 -14.0946 121.402 -13.7064Z" fill="white" stroke="black"/>
<path d="M-30.0718 -35.621C-11.9407 -27.8778 3.01437 -17.4996 12.5415 -7.00113C22.1006 3.53273 26.0657 14.0286 22.634 22.0936C19.2024 30.1585 8.89813 34.5604 -5.30703 34.9453C-19.4645 35.3289 -37.294 31.7059 -55.4251 23.9627C-73.5562 16.2195 -88.5113 5.84132 -98.0384 -4.6572C-107.598 -15.1911 -111.563 -25.6869 -108.131 -33.7519C-104.699 -41.8169 -94.395 -46.2188 -80.1899 -46.6037C-66.0324 -46.9873 -48.2029 -43.3642 -30.0718 -35.621Z" fill="white" stroke="black"/>
<path d="M63.2459 38.2958C56.2371 54.2696 36.7352 61.2128 19.6517 53.7171C2.56825 46.2215 -5.52776 27.1692 1.48104 11.1954C8.48985 -4.77848 27.9918 -11.7217 45.0753 -4.22598C62.1587 3.26968 70.2547 22.3219 63.2459 38.2958Z" fill="#FFC83C" stroke="black"/>
</g>
<defs>
<filter id="filter0_di_44_2392" x="-171.653" y="-172.385" width="413.749" height="405.771" filterUnits="userSpaceOnUse" color-interpolation-filters="sRGB">
<feFlood flood-opacity="0" result="BackgroundImageFix"/>
<feColorMatrix in="SourceAlpha" type="matrix" values="0 0 0 0 0 0 0 0 0 0 0 0 0 0 0 0 0 0 127 0" result="hardAlpha"/>
<feOffset dy="4"/>
<feGaussianBlur stdDeviation="2"/>
<feComposite in2="hardAlpha" operator="out"/>
<feColorMatrix type="matrix" values="0 0 0 0 0 0 0 0 0 0 0 0 0 0 0 0 0 0 0.25 0"/>
<feBlend mode="normal" in2="BackgroundImageFix" result="effect1_dropShadow_44_2392"/>
<feBlend mode="normal" in="SourceGraphic" in2="effect1_dropShadow_44_2392" result="shape"/>
<feColorMatrix in="SourceAlpha" type="matrix" values="0 0 0 0 0 0 0 0 0 0 0 0 0 0 0 0 0 0 127 0" result="hardAlpha"/>
<feOffset dy="4"/>
<feGaussianBlur stdDeviation="2"/>
<feComposite in2="hardAlpha" operator="arithmetic" k2="-1" k3="1"/>
<feColorMatrix type="matrix" values="0 0 0 0 0 0 0 0 0 0 0 0 0 0 0 0 0 0 0.25 0"/>
<feBlend mode="normal" in2="shape" result="effect2_innerShadow_44_2392"/>
</filter>
<clipPath id="clip0_44_2392">
<rect width="312.697" height="297.174" fill="white" transform="translate(-48.2503 -172.385) rotate(23.6903)"/>
</clipPath>
</defs>
</svg>
